<svg aria-hidden="true" style="position: absolute; width: 0; height: 0; overflow: hidden;" version="1.1" xmlns="http://www.w3.org/2000/svg" xmlns:xlink="http://www.w3.org/1999/xlink">
<defs>
    <symbol id="icon-shopping-cart" viewBox="0 0 20 20">
        <path d="M15.5 2h-16l3 9h13c0.552 0 1 0.448 1 1s-0.448 1-1 1v0h-13v2h13c1.657 0 3-1.343 3-3s-1.343-3-3-3v0h-0.33l2.33-7h2v-2h-3c-0.552 0-1 0.448-1 1v0 1zM14.5 20c1.105 0 2-0.895 2-2s-0.895-2-2-2v0c-1.105 0-2 0.895-2 2s0.895 2 2 2v0zM4.5 20c1.105 0 2-0.895 2-2s-0.895-2-2-2v0c-1.105 0-2 0.895-2 2s0.895 2 2 2v0z"></path>
    </symbol>

     <symbol id="icon-telegramm" viewBox="0 0 20 20">
        <path d="M272.005 512.002c-1.148 0-2.311-0.125-3.47-0.382-7.324-1.625-12.535-8.119-12.535-15.62v-240h-240c-7.501 0-13.996-5.211-15.62-12.535-1.625-7.323 2.057-14.792 8.854-17.964l480-224c6.098-2.844 13.322-1.572 18.080 3.186s6.030 11.983 3.186 18.080l-224 480c-2.671 5.72-8.386 9.235-14.495 9.235zM88.121 224h183.879c8.837 0 16 7.164 16 16v183.879l174.895-374.773-374.774 174.894z"></path>
    </symbol>

     <symbol id="icon-phone" viewBox="0 0 20 20">
        <path d="M352 320c-32 32-32 64-64 64s-64-32-96-64-64-64-64-96 32-32 64-64-64-128-96-128-96 96-96 96c0 64 65.75 193.75 128 256s192 128 256 128c0 0 96-64 96-96s-96-128-128-96z"></path>
    </symbol>

</defs>
</svg>
