<svg aria-hidden="true" style="position: absolute; width: 0; height: 0; overflow: hidden;" version="1.1" xmlns="http://www.w3.org/2000/svg" xmlns:xlink="http://www.w3.org/1999/xlink">
<defs>
    <symbol id="icon-shopping-cart" viewBox="0 0 20 20">
        <path d="M15.5 2h-16l3 9h13c0.552 0 1 0.448 1 1s-0.448 1-1 1v0h-13v2h13c1.657 0 3-1.343 3-3s-1.343-3-3-3v0h-0.33l2.33-7h2v-2h-3c-0.552 0-1 0.448-1 1v0 1zM14.5 20c1.105 0 2-0.895 2-2s-0.895-2-2-2v0c-1.105 0-2 0.895-2 2s0.895 2 2 2v0zM4.5 20c1.105 0 2-0.895 2-2s-0.895-2-2-2v0c-1.105 0-2 0.895-2 2s0.895 2 2 2v0z"></path>
    </symbol>
    
</defs>
</svg>
